<mxfile host="Electron" modified="2023-10-31T12:18:08.275Z" agent="Mozilla/5.0 (X11; Linux x86_64) AppleWebKit/537.36 (KHTML, like Gecko) draw.io/22.0.3 Chrome/114.0.5735.289 Electron/25.8.4 Safari/537.36" etag="xGe0Bxb1Z_BvC6KoT10c" version="22.0.3" type="device" pages="2">
  <diagram name="A2i" id="rHHEh37kUeUpuHEY2dk5">
    <mxGraphModel dx="474" dy="835" grid="1" gridSize="10" guides="1" tooltips="1" connect="1" arrows="1" fold="1" page="1" pageScale="1" pageWidth="827" pageHeight="1169" math="0" shadow="0">
      <root>
        <mxCell id="0" />
        <mxCell id="1" parent="0" />
        <mxCell id="VJYz4t1192AATSoc1NlY-14" value="1" style="edgeStyle=orthogonalEdgeStyle;rounded=0;orthogonalLoop=1;jettySize=auto;html=1;endArrow=none;endFill=0;" edge="1" parent="1" source="VJYz4t1192AATSoc1NlY-7" target="VJYz4t1192AATSoc1NlY-12">
          <mxGeometry relative="1" as="geometry" />
        </mxCell>
        <mxCell id="VJYz4t1192AATSoc1NlY-7" value="mündet in" style="shape=rhombus;perimeter=rhombusPerimeter;whiteSpace=wrap;html=1;align=center;fillColor=#d5e8d4;strokeColor=#82b366;" vertex="1" parent="1">
          <mxGeometry x="440" y="270" width="120" height="60" as="geometry" />
        </mxCell>
        <mxCell id="VJYz4t1192AATSoc1NlY-13" value="n" style="edgeStyle=orthogonalEdgeStyle;rounded=0;orthogonalLoop=1;jettySize=auto;html=1;entryX=0;entryY=0.5;entryDx=0;entryDy=0;endArrow=none;endFill=0;" edge="1" parent="1" source="VJYz4t1192AATSoc1NlY-11" target="VJYz4t1192AATSoc1NlY-7">
          <mxGeometry relative="1" as="geometry" />
        </mxCell>
        <mxCell id="VJYz4t1192AATSoc1NlY-11" value="Fluss" style="whiteSpace=wrap;html=1;align=center;fillColor=#ffe6cc;strokeColor=#d79b00;" vertex="1" parent="1">
          <mxGeometry x="260" y="280" width="100" height="40" as="geometry" />
        </mxCell>
        <mxCell id="VJYz4t1192AATSoc1NlY-12" value="Meer" style="whiteSpace=wrap;html=1;align=center;fillColor=#ffe6cc;strokeColor=#d79b00;" vertex="1" parent="1">
          <mxGeometry x="640" y="280" width="100" height="40" as="geometry" />
        </mxCell>
        <mxCell id="VJYz4t1192AATSoc1NlY-15" value="(1,*)" style="edgeStyle=orthogonalEdgeStyle;rounded=0;orthogonalLoop=1;jettySize=auto;html=1;endArrow=none;endFill=0;" edge="1" parent="1" source="VJYz4t1192AATSoc1NlY-16" target="VJYz4t1192AATSoc1NlY-19">
          <mxGeometry relative="1" as="geometry" />
        </mxCell>
        <mxCell id="VJYz4t1192AATSoc1NlY-16" value="mündet in" style="shape=rhombus;perimeter=rhombusPerimeter;whiteSpace=wrap;html=1;align=center;fillColor=#d5e8d4;strokeColor=#82b366;" vertex="1" parent="1">
          <mxGeometry x="440" y="350" width="120" height="60" as="geometry" />
        </mxCell>
        <mxCell id="VJYz4t1192AATSoc1NlY-17" value="(1,1)" style="edgeStyle=orthogonalEdgeStyle;rounded=0;orthogonalLoop=1;jettySize=auto;html=1;entryX=0;entryY=0.5;entryDx=0;entryDy=0;endArrow=none;endFill=0;" edge="1" parent="1" source="VJYz4t1192AATSoc1NlY-18" target="VJYz4t1192AATSoc1NlY-16">
          <mxGeometry relative="1" as="geometry" />
        </mxCell>
        <mxCell id="VJYz4t1192AATSoc1NlY-18" value="Fluss" style="whiteSpace=wrap;html=1;align=center;fillColor=#ffe6cc;strokeColor=#d79b00;" vertex="1" parent="1">
          <mxGeometry x="260" y="360" width="100" height="40" as="geometry" />
        </mxCell>
        <mxCell id="VJYz4t1192AATSoc1NlY-19" value="Meer" style="whiteSpace=wrap;html=1;align=center;fillColor=#ffe6cc;strokeColor=#d79b00;" vertex="1" parent="1">
          <mxGeometry x="640" y="360" width="100" height="40" as="geometry" />
        </mxCell>
      </root>
    </mxGraphModel>
  </diagram>
  <diagram id="-XaNqOJS4Be1WeWrANht" name="A2ii">
    <mxGraphModel dx="1434" dy="835" grid="1" gridSize="10" guides="1" tooltips="1" connect="1" arrows="1" fold="1" page="1" pageScale="1" pageWidth="827" pageHeight="1169" math="0" shadow="0">
      <root>
        <mxCell id="0" />
        <mxCell id="1" parent="0" />
        <mxCell id="sNWJDuJmypuUkhw6X-tl-1" value="(0,*)" style="edgeStyle=orthogonalEdgeStyle;rounded=0;orthogonalLoop=1;jettySize=auto;html=1;endArrow=none;endFill=0;" edge="1" parent="1" source="sNWJDuJmypuUkhw6X-tl-2" target="sNWJDuJmypuUkhw6X-tl-5">
          <mxGeometry relative="1" as="geometry" />
        </mxCell>
        <mxCell id="sNWJDuJmypuUkhw6X-tl-2" value="verschlagwortet&lt;br&gt;mit" style="shape=rhombus;perimeter=rhombusPerimeter;whiteSpace=wrap;html=1;align=center;fillColor=#d5e8d4;strokeColor=#82b366;" vertex="1" parent="1">
          <mxGeometry x="430" y="265" width="140" height="70" as="geometry" />
        </mxCell>
        <mxCell id="sNWJDuJmypuUkhw6X-tl-3" value="(1,5)" style="edgeStyle=orthogonalEdgeStyle;rounded=0;orthogonalLoop=1;jettySize=auto;html=1;entryX=0;entryY=0.5;entryDx=0;entryDy=0;endArrow=none;endFill=0;" edge="1" parent="1" source="sNWJDuJmypuUkhw6X-tl-4" target="sNWJDuJmypuUkhw6X-tl-2">
          <mxGeometry relative="1" as="geometry" />
        </mxCell>
        <mxCell id="sNWJDuJmypuUkhw6X-tl-4" value="Foto" style="whiteSpace=wrap;html=1;align=center;fillColor=#ffe6cc;strokeColor=#d79b00;" vertex="1" parent="1">
          <mxGeometry x="240" y="280" width="100" height="40" as="geometry" />
        </mxCell>
        <mxCell id="sNWJDuJmypuUkhw6X-tl-16" style="rounded=0;orthogonalLoop=1;jettySize=auto;html=1;endArrow=none;endFill=0;" edge="1" parent="1" source="sNWJDuJmypuUkhw6X-tl-5" target="sNWJDuJmypuUkhw6X-tl-15">
          <mxGeometry relative="1" as="geometry" />
        </mxCell>
        <mxCell id="sNWJDuJmypuUkhw6X-tl-5" value="Stichworte" style="whiteSpace=wrap;html=1;align=center;fillColor=#ffe6cc;strokeColor=#d79b00;" vertex="1" parent="1">
          <mxGeometry x="640" y="280" width="100" height="40" as="geometry" />
        </mxCell>
        <mxCell id="sNWJDuJmypuUkhw6X-tl-13" style="rounded=0;orthogonalLoop=1;jettySize=auto;html=1;endArrow=none;endFill=0;" edge="1" parent="1" source="sNWJDuJmypuUkhw6X-tl-11" target="sNWJDuJmypuUkhw6X-tl-4">
          <mxGeometry relative="1" as="geometry" />
        </mxCell>
        <mxCell id="sNWJDuJmypuUkhw6X-tl-11" value="Datum" style="ellipse;whiteSpace=wrap;html=1;align=center;" vertex="1" parent="1">
          <mxGeometry x="120" y="370" width="100" height="40" as="geometry" />
        </mxCell>
        <mxCell id="sNWJDuJmypuUkhw6X-tl-14" style="rounded=0;orthogonalLoop=1;jettySize=auto;html=1;endArrow=none;endFill=0;" edge="1" parent="1" source="sNWJDuJmypuUkhw6X-tl-12" target="sNWJDuJmypuUkhw6X-tl-4">
          <mxGeometry relative="1" as="geometry" />
        </mxCell>
        <mxCell id="sNWJDuJmypuUkhw6X-tl-12" value="Auflösung" style="ellipse;whiteSpace=wrap;html=1;align=center;" vertex="1" parent="1">
          <mxGeometry x="240" y="370" width="100" height="40" as="geometry" />
        </mxCell>
        <mxCell id="sNWJDuJmypuUkhw6X-tl-15" value="Stichwort" style="ellipse;whiteSpace=wrap;html=1;align=center;" vertex="1" parent="1">
          <mxGeometry x="640" y="360" width="100" height="40" as="geometry" />
        </mxCell>
      </root>
    </mxGraphModel>
  </diagram>
</mxfile>
